<svg width="36" height="36" viewBox="0 0 36 36" version="1.1" xmlns="http://www.w3.org/2000/svg" xmlns:xlink="http://www.w3.org/1999/xlink">
<g id="Canvas" fill="none">
<g id="Vector">
<path d="M 16.8147 3.42928C 18.9413 3.42928 19.9303 5.40077 19.3742 8.53493C 19.04 10.4243 18.3005 12.2189 17.2066 13.7954L 14.5618 11.8997L 12.0118 14.4494L 13.9077 17.1128C 12.3043 18.2459 10.4698 19.0099 8.536 19.3497C 5.40145 19.9026 3.42971 18.9137 3.42971 16.7905C 2.34245 17.8762 1.47991 19.1656 0.891411 20.5849C 0.302912 22.0042 -2.01607e-09 23.5255 -2.01608e-09 25.0619C -2.01607e-09 26.5984 0.302912 28.1197 0.891411 29.539C 1.47991 30.9583 2.34245 32.2476 3.42971 33.3333C 3.6177 32.3101 4.03974 31.3441 4.66288 30.511C 5.28602 29.6778 6.09337 29 7.02187 28.5304C 7.95037 28.0609 8.97488 27.8123 10.0153 27.8042C 11.0558 27.7961 12.0841 28.0286 13.0198 28.4836C 13.1423 27.4146 13.5027 26.3866 14.0745 25.4751C 14.6463 24.5635 15.4149 23.7916 16.3241 23.2159C 17.2332 22.6402 18.2597 22.2753 19.3283 22.1481C 20.3969 22.0209 21.4804 22.1345 22.4993 22.4807C 22.1531 21.4619 22.0394 20.3785 22.1667 19.3101C 22.2939 18.2416 22.6588 17.2152 23.2346 16.3062C 23.8104 15.3972 24.5824 14.6286 25.4941 14.0569C 26.4057 13.4852 27.4338 13.1249 28.503 13.0024C 28.051 12.067 27.8211 11.04 27.8311 10.0012C 27.8412 8.96245 28.091 7.94004 28.561 7.01361C 29.031 6.08718 29.7085 5.28174 30.5408 4.66004C 31.3732 4.03834 32.3378 3.61715 33.3596 3.42928C 32.2738 2.34216 30.9843 1.47973 29.5648 0.8913C 28.1453 0.302874 26.6238 -2.00942e-08 25.0872 -2.00943e-08C 23.5506 -2.00942e-08 22.029 0.302874 20.6096 0.8913C 19.1901 1.47973 17.9006 2.34216 16.8147 3.42928Z" transform="translate(1.06781 1.66699)" fill="#666666"/>
<path d="M 16.8147 3.42928C 18.9413 3.42928 19.9303 5.40077 19.3742 8.53493C 19.04 10.4243 18.3005 12.2189 17.2066 13.7954L 14.5618 11.8997L 12.0118 14.4494L 13.9077 17.1128C 12.3043 18.2459 10.4698 19.0099 8.536 19.3497C 5.40145 19.9026 3.42971 18.9137 3.42971 16.7905C 2.34245 17.8762 1.47991 19.1656 0.891411 20.5849C 0.302912 22.0042 -2.01607e-09 23.5255 -2.01608e-09 25.0619C -2.01607e-09 26.5984 0.302912 28.1197 0.891411 29.539C 1.47991 30.9583 2.34245 32.2476 3.42971 33.3333C 3.6177 32.3101 4.03974 31.3441 4.66288 30.511C 5.28602 29.6778 6.09337 29 7.02187 28.5304C 7.95037 28.0609 8.97488 27.8123 10.0153 27.8042C 11.0558 27.7961 12.0841 28.0286 13.0198 28.4836C 13.1423 27.4146 13.5027 26.3866 14.0745 25.4751C 14.6463 24.5635 15.4149 23.7916 16.3241 23.2159C 17.2332 22.6402 18.2597 22.2753 19.3283 22.1481C 20.3969 22.0209 21.4804 22.1345 22.4993 22.4807C 22.1531 21.4619 22.0394 20.3785 22.1667 19.3101C 22.2939 18.2416 22.6588 17.2152 23.2346 16.3062C 23.8104 15.3972 24.5824 14.6286 25.4941 14.0569C 26.4057 13.4852 27.4338 13.1249 28.503 13.0024C 28.051 12.067 27.8211 11.04 27.8311 10.0012C 27.8412 8.96245 28.091 7.94004 28.561 7.01361C 29.031 6.08718 29.7085 5.28175 30.5408 4.66004C 31.3732 4.03834 32.3378 3.61715 33.3596 3.42928C 32.2738 2.34216 30.9842 1.47973 29.5648 0.8913C 28.1453 0.302874 26.6238 -2.00943e-08 25.0872 -2.00943e-08C 23.5506 -2.00943e-08 22.029 0.302874 20.6096 0.8913C 19.1901 1.47973 17.9006 2.34216 16.8147 3.42928L 16.8147 3.42928Z" stroke-width="1.41558" stroke-linecap="round" stroke-linejoin="round" transform="translate(1.06781 1.66699)" stroke="black"/>
</g>
</g>
</svg>

