<svg width="16" height="35" viewBox="0 0 16 35" version="1.1" xmlns="http://www.w3.org/2000/svg" xmlns:xlink="http://www.w3.org/1999/xlink">
<g id="Canvas" fill="none">
<g id="hand">
<g id="Vector">
<path d="M 11.1524 21.5177L 11.1524 17.0133C 11.9903 16.3574 12.6687 15.515 13.1352 14.5509C 13.6017 13.5869 13.8439 12.5269 13.8431 11.4528L 13.8431 3.21976C 13.8431 2.77969 13.6709 2.35764 13.3644 2.04647C 13.0578 1.73529 12.6421 1.56047 12.2086 1.56047C 11.7751 1.56047 11.3594 1.73529 11.0528 2.04647C 10.7463 2.35764 10.5741 2.77969 10.5741 3.21976L 10.5741 1.65929C 10.5741 1.21922 10.4019 0.797174 10.0954 0.485996C 9.78885 0.174818 9.37311 9.00224e-08 8.93961 9.00224e-08C 8.50612 9.00224e-08 8.09038 0.174818 7.78385 0.485996C 7.47732 0.797174 7.30511 1.21922 7.30511 1.65929C 7.30511 1.21922 7.13291 0.797174 6.82638 0.485996C 6.51985 0.174818 6.10411 9.00224e-08 5.67062 9.00224e-08C 5.23712 9.00224e-08 4.82138 0.174818 4.51485 0.485996C 4.20833 0.797174 4.03612 1.21922 4.03612 1.65929C 4.03612 1.21922 3.86391 0.797174 3.55739 0.485996C 3.25086 0.174818 2.83512 9.00224e-08 2.40162 9.00224e-08C 1.96813 9.00224e-08 1.55239 0.174818 1.24586 0.485996C 0.93933 0.797174 0.767124 1.21922 0.767124 1.65929C 0.767124 1.65929 0.767124 6.08407 0.787465 6.15192C 0.547262 6.29917 0.34857 6.50687 0.210615 6.75493C 0.0726603 7.00298 0.000115135 7.28299 2.77116e-09 7.56785L 2.77116e-09 11.4528C 0.000444876 12.6861 0.32079 13.8976 0.928815 14.9654C 1.53684 16.0331 2.41111 16.9195 3.46368 17.5354L 3.46368 21.5177" transform="translate(1.388 12.8154)" fill="#FFBE99"/>
<path d="M 11.1524 21.5177L 11.1524 17.0133C 11.9903 16.3574 12.6687 15.515 13.1352 14.5509C 13.6017 13.5869 13.8439 12.5269 13.8431 11.4528L 13.8431 3.21976C 13.8431 2.77969 13.6709 2.35764 13.3644 2.04647C 13.0578 1.73529 12.6421 1.56047 12.2086 1.56047C 11.7751 1.56047 11.3594 1.73529 11.0528 2.04647C 10.7463 2.35764 10.5741 2.77969 10.5741 3.21976L 10.5741 1.65929C 10.5741 1.21922 10.4019 0.797174 10.0954 0.485996C 9.78885 0.174818 9.37311 9.00224e-08 8.93961 9.00224e-08C 8.50612 9.00224e-08 8.09038 0.174818 7.78385 0.485996C 7.47732 0.797174 7.30511 1.21922 7.30511 1.65929C 7.30511 1.21922 7.13291 0.797174 6.82638 0.485996C 6.51985 0.174818 6.10411 9.00224e-08 5.67062 9.00224e-08C 5.23712 9.00224e-08 4.82138 0.174818 4.51485 0.485996C 4.20833 0.797174 4.03612 1.21922 4.03612 1.65929C 4.03612 1.21922 3.86391 0.797174 3.55739 0.485996C 3.25086 0.174818 2.83512 9.00224e-08 2.40162 9.00224e-08C 1.96813 9.00224e-08 1.55239 0.174818 1.24586 0.485996C 0.93933 0.797174 0.767124 1.21922 0.767124 1.65929C 0.767124 1.65929 0.767124 6.08407 0.787465 6.15192C 0.547262 6.29917 0.34857 6.50687 0.210615 6.75493C 0.0726603 7.00298 0.000115135 7.28299 2.77116e-09 7.56785L 2.77116e-09 11.4528C 0.000444876 12.6861 0.32079 13.8976 0.928815 14.9654C 1.53684 16.0331 2.41111 16.9195 3.46368 17.5354L 3.46368 21.5177" stroke-width="1.31102" stroke-linecap="round" stroke-linejoin="round" transform="translate(1.388 12.8154)" stroke="black"/>
</g>
<g id="Vector_2">
<path d="M -3.1037e-07 1.15044C 0.645806 0.947609 1.25871 0.649432 1.81901 0.265486C 1.94106 0.180923 2.06116 0.0924297 2.17933 9.90246e-07" stroke-width="1.31102" stroke-linecap="round" stroke-linejoin="round" transform="translate(10.361 29.8291)" stroke="black"/>
</g>
<g id="Vector_3">
<path d="M -4.43386e-08 0C 0.458411 0.269432 0.945935 0.484227 1.45289 0.640117" stroke-width="1.31102" stroke-linecap="round" stroke-linejoin="round" transform="translate(4.85168 30.3506)" stroke="black"/>
</g>
<g id="Vector_4">
<path d="M -6.10352e-07 13.41L -6.10352e-07 8.4396e-09" stroke-width="1.31102" stroke-linecap="round" stroke-linejoin="round" transform="translate(8.69604 1.06543)" stroke="black"/>
</g>
<g id="Vector_5">
<path d="M 0.550322 0C -0.183441 4.48254 -0.183441 9.05729 0.550322 13.5398" stroke-width="1.31102" stroke-linecap="round" stroke-linejoin="round" transform="translate(4.87671 1)" stroke="black"/>
</g>
<g id="Vector_6">
<path d="M -1.77354e-07 0C 0.733762 4.48254 0.733762 9.05729 -1.77354e-07 13.5398" stroke-width="1.31102" stroke-linecap="round" stroke-linejoin="round" transform="translate(11.965 1)" stroke="black"/>
</g>
<g id="Vector_7">
<path d="M -6.10352e-07 9.00224e-08L -6.10352e-07 4.25074" stroke-width="1.31102" stroke-linecap="round" stroke-linejoin="round" transform="translate(5.427 14.4746)" stroke="black"/>
</g>
<g id="Vector_8">
<path d="M -6.10352e-07 4.25074L -6.10352e-07 9.00224e-08" stroke-width="1.31102" stroke-linecap="round" stroke-linejoin="round" transform="translate(11.965 14.4746)" stroke="black"/>
</g>
<g id="Vector_9">
<path d="M -6.10352e-07 9.00224e-08L -6.10352e-07 4.25074" stroke-width="1.31102" stroke-linecap="round" stroke-linejoin="round" transform="translate(8.69604 14.4746)" stroke="black"/>
</g>
<g id="Vector_10">
<path d="M -1.77354e-07 4.50112e-08C -1.77354e-07 0.440072 0.172206 0.862119 0.478734 1.1733C 0.785261 1.48447 1.201 1.65929 1.6345 1.65929C 2.06799 1.65929 2.48374 1.48447 2.79026 1.1733C 3.09679 0.862119 3.269 0.440072 3.269 4.50112e-08C 3.269 0.440072 3.4412 0.862119 3.74773 1.1733C 4.05426 1.48447 4.47 1.65929 4.90349 1.65929C 5.33699 1.65929 5.75273 1.48447 6.05926 1.1733C 6.36579 0.862119 6.53799 0.440072 6.53799 4.50112e-08" stroke-width="1.31102" stroke-linecap="round" stroke-linejoin="round" transform="translate(8.69604 18.7256)" stroke="black"/>
</g>
<g id="Vector_11">
<path d="M 1.10846e-08 0.238941C 0.25498 0.0821708 0.547482 -0.000482626 0.84558 2.16541e-06L 5.0328 2.16541e-06C 5.4663 2.16541e-06 5.88204 0.17482 6.18857 0.485998C 6.49509 0.797176 6.6673 1.21922 6.6673 1.65929C 6.6673 2.09936 6.49509 2.52141 6.18857 2.83259C 5.88204 3.14377 5.4663 3.31859 5.0328 3.31859L 2.48153 3.31859L 2.48153 5.93216L 6.05854 7.49558" stroke-width="1.31102" stroke-linecap="round" stroke-linejoin="round" transform="translate(2.17834 18.7256)" stroke="black"/>
</g>
</g>
</g>
</svg>

