<svg width="43" height="36" viewBox="0 0 43 36" version="1.1" xmlns="http://www.w3.org/2000/svg" xmlns:xlink="http://www.w3.org/1999/xlink">
<g id="Canvas" fill="none">
<g id="hat">
<g id="Vector">
<path d="M 9.8356 0C 8.56061 1.59942 1.38962e-07 2.14467 1.38962e-07 11.0142L 7.35849 14.6492L 9.8356 18.6478L 12.3127 14.6492L 19.6712 11.0142C 19.6712 2.14467 11.0742 1.59942 9.8356 0Z" transform="translate(11.7922 8.81543)" fill="#F8A71B"/>
<path d="M 9.8356 0C 8.56061 1.59942 1.38962e-07 2.14467 1.38962e-07 11.0142L 7.35849 14.6492L 9.8356 18.6478L 12.3127 14.6492L 19.6712 11.0142C 19.6712 2.14467 11.0742 1.59942 9.8356 0Z" stroke-width="1.52835" stroke-miterlimit="10" stroke-linecap="round" stroke-linejoin="round" transform="translate(11.7922 8.81543)" stroke="black"/>
</g>
<g id="Vector_2">
<path d="M 5.97422 26.0269L 2.69568 26.0269L -3.47406e-08 0C 3.60639 0 9.79917 0.218103 9.79917 11.5958L 9.79917 33.3333C 8.30562 33.0789 5.97422 31.0433 5.97422 26.0269Z" transform="translate(1.95667 1)" fill="#F37D22"/>
<path d="M 5.97422 26.0269L 2.69568 26.0269L -3.47406e-08 0C 3.60639 0 9.79917 0.218103 9.79917 11.5958L 9.79917 33.3333C 8.30562 33.0789 5.97422 31.0433 5.97422 26.0269Z" stroke-width="1.52835" stroke-miterlimit="10" stroke-linecap="round" stroke-linejoin="round" transform="translate(1.95667 1)" stroke="black"/>
</g>
<g id="Vector_3">
<path d="M 4.62637 -1.52588e-06L 6.94812e-08 -1.52588e-06" stroke-width="1.52835" stroke-miterlimit="10" stroke-linecap="round" stroke-linejoin="round" transform="translate(3.30444 22.665)" stroke="black"/>
</g>
<g id="Vector_4">
<path d="M 7.32206 0.545256L 3.47406e-08 -2.77332e-07" stroke-width="1.52835" stroke-miterlimit="10" stroke-linecap="round" stroke-linejoin="round" transform="translate(2.79449 18.1943)" stroke="black"/>
</g>
<g id="Vector_5">
<path d="M 5.57351 0.908761L -3.47406e-08 0" stroke-width="1.52835" stroke-miterlimit="10" stroke-linecap="round" stroke-linejoin="round" transform="translate(2.32092 13.7227)" stroke="black"/>
</g>
<g id="Vector_6">
<path d="M 5.39137 1.49037L -1.73703e-08 1.38666e-07" stroke-width="1.52835" stroke-miterlimit="10" stroke-linecap="round" stroke-linejoin="round" transform="translate(1.84735 9.21582)" stroke="black"/>
</g>
<g id="Vector_7">
<path d="M 5.71922 2.32643L 0 6.93329e-08" stroke-width="1.52835" stroke-miterlimit="10" stroke-linecap="round" stroke-linejoin="round" transform="translate(1.37378 4.74414)" stroke="black"/>
</g>
<g id="Vector_8">
<path d="M 0 0L 1.93069 0.908761" stroke-width="1.52835" stroke-miterlimit="10" stroke-linecap="round" stroke-linejoin="round" transform="translate(16.1272 17.54)" stroke="black"/>
</g>
<g id="Vector_9">
<path d="M 1.93069 0L 5.55849e-07 0.908761" stroke-width="1.52835" stroke-miterlimit="10" stroke-linecap="round" stroke-linejoin="round" transform="translate(25.1978 17.54)" stroke="black"/>
</g>
<g id="Vector_10">
<path d="M -1.52588e-06 4.14395L -1.52588e-06 0" stroke-width="1.52835" stroke-miterlimit="10" stroke-linecap="round" stroke-linejoin="round" transform="translate(21.6278 8.81543)" stroke="black"/>
</g>
<g id="Vector_11">
<path d="M -1.52588e-06 11.7775L -1.52588e-06 5.54663e-07" stroke-width="1.52835" stroke-miterlimit="10" stroke-linecap="round" stroke-linejoin="round" transform="translate(21.6278 15.6855)" stroke="black"/>
</g>
<g id="Vector_12">
<path d="M 4.6628 12.759C 1.31141 11.3777 2.77925e-07 6.83388 2.77925e-07 2.77332e-07" stroke-width="1.52835" stroke-miterlimit="10" stroke-linecap="round" stroke-linejoin="round" transform="translate(7.09302 7.07031)" stroke="black"/>
</g>
<g id="Vector_13">
<path d="M 3.82495 26.0269L 7.10349 26.0269L 9.79917 0C 6.22921 0 -1.1117e-06 0.218103 -1.1117e-06 11.5958L -1.1117e-06 33.3333C 1.49355 33.0789 3.82495 31.0433 3.82495 26.0269Z" transform="translate(31.4999 1)" fill="#F37D22"/>
<path d="M 3.82495 26.0269L 7.10349 26.0269L 9.79917 0C 6.22921 0 -1.1117e-06 0.218103 -1.1117e-06 11.5958L -1.1117e-06 33.3333C 1.49355 33.0789 3.82495 31.0433 3.82495 26.0269Z" stroke-width="1.52835" stroke-miterlimit="10" stroke-linecap="round" stroke-linejoin="round" transform="translate(31.4999 1)" stroke="black"/>
</g>
<g id="Vector_14">
<path d="M -1.1117e-06 -1.52588e-06L 4.62638 -1.52588e-06" stroke-width="1.52835" stroke-miterlimit="10" stroke-linecap="round" stroke-linejoin="round" transform="translate(35.3248 22.665)" stroke="black"/>
</g>
<g id="Vector_15">
<path d="M -1.1117e-06 0.545256L 7.28563 -2.77332e-07" stroke-width="1.52835" stroke-miterlimit="10" stroke-linecap="round" stroke-linejoin="round" transform="translate(33.1391 18.1943)" stroke="black"/>
</g>
<g id="Vector_16">
<path d="M 1.1117e-06 0.908761L 5.57351 0" stroke-width="1.52835" stroke-miterlimit="10" stroke-linecap="round" stroke-linejoin="round" transform="translate(35.3613 13.7227)" stroke="black"/>
</g>
<g id="Vector_17">
<path d="M -5.55849e-07 1.49037L 5.39137 1.38666e-07" stroke-width="1.52835" stroke-miterlimit="10" stroke-linecap="round" stroke-linejoin="round" transform="translate(36.017 9.21582)" stroke="black"/>
</g>
<g id="Vector_18">
<path d="M 0 2.32643L 5.71922 6.93329e-08" stroke-width="1.52835" stroke-miterlimit="10" stroke-linecap="round" stroke-linejoin="round" transform="translate(36.1627 4.74414)" stroke="black"/>
</g>
<g id="Vector_19">
<path d="M -1.1117e-06 12.759C 3.35139 11.3777 4.6628 6.83388 4.6628 2.77332e-07" stroke-width="1.52835" stroke-miterlimit="10" stroke-linecap="round" stroke-linejoin="round" transform="translate(31.4999 7.07031)" stroke="black"/>
</g>
</g>
</g>
</svg>

